<?xml version="1.0" encoding="UTF-8"?>
<svg width="816px" height="739px" viewBox="0 0 816 739" version="1.1" xmlns="http://www.w3.org/2000/svg" xmlns:xlink="http://www.w3.org/1999/xlink">
    <!-- Generator: Sketch 48.1 (47250) - http://www.bohemiancoding.com/sketch -->
    <title>cheers</title>
    <desc>Created with Sketch.</desc>
    <defs>
        <linearGradient x1="60.121435%" y1="97.0504877%" x2="43.2722788%" y2="0.879009001%" id="linearGradient-1">
            <stop stop-color="#808080" stop-opacity="0.25" offset="0%"></stop>
            <stop stop-color="#808080" stop-opacity="0.12" offset="54%"></stop>
            <stop stop-color="#808080" stop-opacity="0.1" offset="100%"></stop>
        </linearGradient>
        <linearGradient x1="78570%" y1="71137%" x2="78570%" y2="33337%" id="linearGradient-2">
            <stop stop-color="#808080" stop-opacity="0.25" offset="0%"></stop>
            <stop stop-color="#808080" stop-opacity="0.12" offset="54%"></stop>
            <stop stop-color="#808080" stop-opacity="0.1" offset="100%"></stop>
        </linearGradient>
        <linearGradient x1="76863%" y1="42156%" x2="76863%" y2="26056%" id="linearGradient-3">
            <stop stop-color="#808080" stop-opacity="0.25" offset="0%"></stop>
            <stop stop-color="#808080" stop-opacity="0.12" offset="54%"></stop>
            <stop stop-color="#808080" stop-opacity="0.1" offset="100%"></stop>
        </linearGradient>
        <linearGradient x1="60263%" y1="55756%" x2="60263%" y2="17956%" id="linearGradient-4">
            <stop stop-color="#808080" stop-opacity="0.25" offset="0%"></stop>
            <stop stop-color="#808080" stop-opacity="0.12" offset="54%"></stop>
            <stop stop-color="#808080" stop-opacity="0.1" offset="100%"></stop>
        </linearGradient>
    </defs>
    <g id="Page-1" stroke="none" stroke-width="1" fill="none" fill-rule="evenodd">
        <g id="cheers">
            <circle id="Oval" stroke="#3AD29F" stroke-width="5" opacity="0.4" stroke-dasharray="12" cx="387" cy="389" r="269.5"></circle>
            <circle id="Oval" stroke="#3AD29F" stroke-width="5" opacity="0.4" stroke-dasharray="12" cx="387" cy="389" r="205.5"></circle>
            <path d="M742,424.5 C742.828427,424.5 743.5,423.828427 743.5,423 C743.5,422.171573 742.828427,421.5 742,421.5 C741.171573,421.5 740.5,422.171573 740.5,423 C740.5,423.828427 741.171573,424.5 742,424.5 Z" id="Shape" fill="#F5F5F5" fill-rule="nonzero"></path>
            <g id="Group" opacity="0.5" transform="translate(678.000000, 315.000000)" fill="url(#linearGradient-1)" fill-rule="nonzero">
                <path d="M0.18,7.06 L2.37,27.06 L38.58,23.06 C47.5491976,22.0726362 56.543024,24.6911331 63.5804915,30.3387383 C70.617959,35.9863435 75.1218019,44.1997981 76.1,53.17 L81.84,105.58 C82.8273638,114.549198 80.2088669,123.543024 74.5612617,130.580491 C68.9136565,137.617959 60.7002019,142.121802 51.73,143.1 L15.52,147.1 L17.71,167.1 L73.92,160.94 C92.5840537,158.887517 106.050921,142.094225 104,123.43 L93.91,31 C92.9318019,22.0297981 88.427959,13.8163435 81.3904915,8.16873828 C74.353024,2.5211331 65.3591976,-0.097363753 56.39,0.89 L0.18,7.06 Z" id="Shape"></path>
            </g>
            <path d="M683.86,330 L685.86,347.89 L714.67,344.73 C723.639198,343.742636 732.633024,346.361133 739.670491,352.008738 C746.707959,357.656343 751.211802,365.869798 752.19,374.84 L756.54,414.57 C757.527364,423.539198 754.908867,432.533024 749.261262,439.570491 C743.613657,446.607959 735.400202,451.111802 726.43,452.09 L697.62,455.25 L699.62,473.14 L746.24,468 C755.210202,467.021802 763.423657,462.517959 769.071262,455.480491 C774.718867,448.443024 777.337364,439.449198 776.35,430.48 L768.08,355 C767.101802,346.029798 762.597959,337.816343 755.560491,332.168738 C748.523024,326.521133 739.529198,323.902636 730.56,324.89 L683.86,330 Z" id="Shape" fill="#DBE8FC" fill-rule="nonzero"></path>
            <g id="Group" opacity="0.5" transform="translate(417.000000, 240.000000)" fill="url(#linearGradient-2)" fill-rule="nonzero">
                <path d="M259.8,381 L87.23,399.9 C75.2342551,401.212838 63.2083027,397.706606 53.7977235,390.152637 C44.3871442,382.598669 38.3628065,371.615748 37.05,359.62 L0.85,29.1 L263.85,0.29 L300.05,330.81 C302.790437,355.78303 284.772101,378.251111 259.8,381 Z" id="Shape"></path>
            </g>
            <path d="M443.934529,262.57624 L695.934529,262.57624 L695.934529,577.07624 C695.934529,602.205196 675.563485,622.57624 650.434529,622.57624 L489.434529,622.57624 C464.305573,622.57624 443.934529,602.205196 443.934529,577.07624 L443.934529,262.57624 Z" id="Shape" fill="#DBE8FC" fill-rule="nonzero" transform="translate(569.934529, 442.576240) rotate(-6.250000) translate(-569.934529, -442.576240) "></path>
            <path d="M461.885144,280.101693 L677.385144,280.101693 L677.385144,558.601693 C677.385144,583.73065 657.014101,604.101693 631.885144,604.101693 L507.385144,604.101693 C482.256188,604.101693 461.885144,583.73065 461.885144,558.601693 L461.885144,280.101693 Z" id="Shape" fill="#487FC0" fill-rule="nonzero" transform="translate(569.635144, 442.101693) rotate(-6.250000) translate(-569.635144, -442.101693) "></path>
            <path d="M489.69,316 C485.21,316.49 485.97,323.45 490.45,323 C494.93,322.55 494.17,315.56 489.69,316 Z" id="Shape" fill="#FFFFFF" fill-rule="nonzero"></path>
            <path d="M518.39,394.39 C513.91,394.88 514.67,401.84 519.15,401.39 C523.63,400.94 522.87,393.9 518.39,394.39 Z" id="Shape" fill="#FAFAFA" fill-rule="nonzero"></path>
            <path d="M508.25,448.82 C503.77,449.31 504.53,456.27 509.01,455.82 C513.49,455.37 512.74,448.33 508.25,448.82 Z" id="Shape" fill="#FAFAFA" fill-rule="nonzero"></path>
            <path d="M535,518.32 C530.52,518.81 531.28,525.77 535.76,525.32 C540.24,524.87 539.47,517.83 535,518.32 Z" id="Shape" fill="#FAFAFA" fill-rule="nonzero"></path>
            <path d="M599.25,517.32 C594.77,517.81 595.53,524.77 600.01,524.32 C604.49,523.87 603.74,516.82 599.25,517.32 Z" id="Shape" fill="#FAFAFA" fill-rule="nonzero"></path>
            <path d="M592.28,315.88 C587.8,316.37 588.56,323.33 593.04,322.88 C597.52,322.43 596.76,315.39 592.28,315.88 Z" id="Shape" fill="#FFFFFF" fill-rule="nonzero"></path>
            <path d="M638.45,305.79 C633.97,306.28 634.73,313.24 639.21,312.79 C643.69,312.34 642.94,305.3 638.45,305.79 Z" id="Shape" fill="#FFFFFF" fill-rule="nonzero"></path>
            <path d="M552.6,339.34 C546.84,339.97 547.81,348.92 553.6,348.29 C559.39,347.66 558.36,338.71 552.6,339.34 Z" id="Shape" fill="#FAFAFA" fill-rule="nonzero"></path>
            <path d="M610,431.64 C604.24,432.27 605.21,441.22 611,440.59 C616.79,439.96 615.75,431 610,431.64 Z" id="Shape" fill="#FAFAFA" fill-rule="nonzero"></path>
            <path d="M523,574.46 C516.6,575.16 517.68,585.1 524.09,584.4 C530.5,583.7 529.43,573.75 523,574.46 Z" id="Shape" fill="#FAFAFA" fill-rule="nonzero"></path>
            <path d="M491.25,339.52 C484.85,340.22 485.93,350.16 492.34,349.46 C498.75,348.76 497.66,338.82 491.25,339.52 Z" id="Shape" fill="#FAFAFA" fill-rule="nonzero"></path>
            <rect id="Rectangle-path" fill="#FAFAFA" fill-rule="nonzero" transform="translate(554.748243, 303.904135) rotate(-6.250000) translate(-554.748243, -303.904135) " x="446.748243" y="272.404135" width="216" height="63"></rect>
            <path d="M554.79,561.42 L524.47,284.57 L444.95,293.28 L475.27,570.12 C476.582807,582.115748 482.607144,593.098669 492.017723,600.652637 C501.428303,608.206606 513.454255,611.712838 525.45,610.4 L605,601.69 C593.000974,603.011447 580.968627,599.510479 571.551652,591.957769 C562.134677,584.405059 556.105022,573.419731 554.79,561.42 Z" id="Shape" fill="#000000" fill-rule="nonzero" opacity="0.05"></path>
            <path d="M609.46,555.43 L579.14,278.59 L658.66,269.88 L689,546.72 C690.312838,558.715745 686.806606,570.741697 679.252637,580.152277 C671.698669,589.562856 660.715748,595.587193 648.72,596.9 L569.2,605.61 C594.171788,602.866062 612.194288,580.402847 609.46,555.43 Z" id="Shape" fill="#FFFFFF" fill-rule="nonzero" opacity="0.1"></path>
            <path d="M693.48,248 C691.32,228.24 629.48,218.8 555.36,226.91 C481.24,235.02 422.92,257.63 425.08,277.4 C426.4,289.45 449.92,297.66 484.89,300.4 C480.546872,310.422335 484.032956,322.116209 493.154982,328.124419 C502.277009,334.13263 514.397143,332.71777 521.89,324.77 C527.18,343.01 538.97,355.47 551.18,354.13 C564.54,352.67 573.83,335.18 573.56,313.65 C579.08,319.78 585.93,323.16 592.98,322.39 C601.57,321.45 608.55,314.55 612.43,304.6 C617.09,308.26 622.43,310.12 627.79,309.52 C634.72,308.76 640.6,304.13 644.65,297.15 C647.48,312.91 658.39,324.27 670.01,323 C682.36,321.65 690.84,306.53 688.95,289.24 C687.95,280.06 684.22,272.11 679.09,266.87 C688.9,260.61 694.16,254.14 693.48,248 Z" id="Shape" fill="#000000" fill-rule="nonzero" opacity="0.03"></path>
            <path d="M692.5,239 C690.34,219.24 628.5,209.8 554.38,217.91 C480.26,226.02 421.94,248.63 424.1,268.4 C425.42,280.45 448.94,288.66 483.91,291.4 C479.566872,301.422335 483.052956,313.116209 492.174982,319.124419 C501.297009,325.13263 513.417143,323.71777 520.91,315.77 C526.2,334.01 537.99,346.47 550.2,345.13 C563.56,343.67 572.85,326.18 572.58,304.65 C578.1,310.78 584.95,314.16 592,313.39 C600.59,312.45 607.57,305.55 611.45,295.6 C616.11,299.26 621.45,301.12 626.81,300.52 C633.74,299.76 639.62,295.13 643.67,288.15 C646.5,303.91 657.41,315.28 669,314 C681.35,312.65 689.83,297.53 687.94,280.24 C686.94,271.06 683.21,263.11 678.08,257.87 C687.92,251.66 693.18,245.2 692.5,239 Z" id="Shape" fill="#FAFAFA" fill-rule="nonzero"></path>
            <g id="Group" opacity="0.5" transform="translate(43.000000, 151.000000)" fill="url(#linearGradient-3)" fill-rule="nonzero">
                <path d="M120.45,15.87 L115.53,35.39 L80.21,26.49 C71.4615978,24.2800389 62.1935164,25.6382474 54.447083,30.2654753 C46.7006496,34.8927032 41.1112611,42.4094047 38.91,51.16 L26,102.28 C23.7900389,111.028402 25.1482474,120.296484 29.7754753,128.042917 C34.4027032,135.78935 41.9194047,141.378739 50.67,143.58 L85.99,152.48 L81.11,172 L26.28,158.18 C17.5294047,155.978739 10.0127032,150.38935 5.38547534,142.642917 C0.758247447,134.896484 -0.599961057,125.628402 1.61,116.88 L24.32,26.73 C26.5081152,17.9683233 32.0920458,10.4371132 39.8400033,5.79771881 C47.5879608,1.1583244 56.8633269,-0.208054068 65.62,2 L120.45,15.87 Z" id="Shape"></path>
            </g>
            <path d="M156.74,173.94 L152.34,191.39 L124.23,184.31 C115.480253,182.103688 106.212326,183.466097 98.4676856,188.097126 C90.723045,192.728155 85.1369998,200.24791 82.94,209 L73.17,247.76 C68.6064688,265.961918 79.652353,284.419466 97.85,289 L126,296.12 L121.6,313.57 L76,302.1 C67.2494047,299.898739 59.7327032,294.30935 55.1054753,286.562917 C50.4782474,278.816484 49.1200389,269.548402 51.33,260.8 L69.89,187.13 C72.0912611,178.379405 77.6806496,170.862703 85.427083,166.235475 C93.1735164,161.608247 102.441598,160.250039 111.19,162.46 L156.74,173.94 Z" id="Shape" fill="#DBE8FC" fill-rule="nonzero"></path>
            <g id="Group" opacity="0.5" transform="translate(89.000000, 85.000000)" fill="url(#linearGradient-4)" fill-rule="nonzero">
                <path d="M34.78,378.15 L203.12,420.57 C227.486783,426.711269 252.218482,411.93672 258.36,387.57 L339.6,65.15 L83,0.49 L1.77,322.91 C-1.17882164,334.612725 0.642497103,347.00757 6.83321453,357.367316 C13.0239319,367.727063 23.0768349,375.202924 34.78,378.15 Z" id="Shape"></path>
            </g>
            <path d="M173.612998,121.094434 L334.612998,121.094434 C359.741955,121.094434 380.112998,141.465477 380.112998,166.594434 L380.112998,481.094434 L128.112998,481.094434 L128.112998,166.594434 C128.112998,141.465477 148.484042,121.094434 173.612998,121.094434 Z" id="Shape" fill="#DBE8FC" fill-rule="nonzero" transform="translate(254.112998, 301.094434) rotate(-165.860000) translate(-254.112998, -301.094434) "></path>
            <path d="M192.219163,138.681017 L316.719163,138.681017 C341.848119,138.681017 362.219163,159.052061 362.219163,184.181017 L362.219163,462.681017 L146.719163,462.681017 L146.719163,184.181017 C146.719163,172.113667 151.512899,160.540564 160.045805,152.007659 C168.57871,143.474753 180.151813,138.681017 192.219163,138.681017 Z" id="Shape" fill="#487FC0" fill-rule="nonzero" transform="translate(254.469163, 300.681017) rotate(-165.860000) translate(-254.469163, -300.681017) "></path>
            <path d="M351,186.79 C355.37,187.89 353.66,194.68 349.29,193.58 C344.92,192.48 346.61,185.69 351,186.79 Z" id="Shape" fill="#FFFFFF" fill-rule="nonzero"></path>
            <path d="M311.8,260.45 C316.17,261.55 314.46,268.34 310.09,267.24 C305.72,266.14 307.43,259.35 311.8,260.45 Z" id="Shape" fill="#FAFAFA" fill-rule="nonzero"></path>
            <path d="M314.37,315.75 C318.74,316.85 317.03,323.64 312.66,322.54 C308.29,321.44 310,314.65 314.37,315.75 Z" id="Shape" fill="#FAFAFA" fill-rule="nonzero"></path>
            <path d="M278.35,380.93 C282.72,382.03 281.01,388.82 276.64,387.72 C272.27,386.62 274,379.82 278.35,380.93 Z" id="Shape" fill="#FAFAFA" fill-rule="nonzero"></path>
            <path d="M214.83,371.11 C219.2,372.21 217.49,379 213.12,377.9 C208.75,376.8 210.45,370 214.83,371.11 Z" id="Shape" fill="#FAFAFA" fill-rule="nonzero"></path>
            <path d="M249.39,172.53 C253.76,173.63 252.05,180.42 247.68,179.32 C243.31,178.22 245,171.43 249.39,172.53 Z" id="Shape" fill="#FFFFFF" fill-rule="nonzero"></path>
            <path d="M205,156.2 C209.37,157.3 207.66,164.09 203.29,162.99 C198.92,161.89 200.66,155.1 205,156.2 Z" id="Shape" fill="#FFFFFF" fill-rule="nonzero"></path>
            <path d="M285.47,201.22 C291.09,202.63 288.9,211.36 283.27,209.95 C277.64,208.54 279.85,199.8 285.47,201.22 Z" id="Shape" fill="#FAFAFA" fill-rule="nonzero"></path>
            <path d="M216,284.77 C221.62,286.18 219.43,294.91 213.8,293.5 C208.17,292.09 210.33,283.35 216,284.77 Z" id="Shape" fill="#FAFAFA" fill-rule="nonzero"></path>
            <path d="M282.49,438.17 C288.73,439.74 286.3,449.44 280.05,447.87 C273.8,446.3 276.24,436.6 282.49,438.17 Z" id="Shape" fill="#FAFAFA" fill-rule="nonzero"></path>
            <path d="M346.21,209.82 C352.45,211.39 350.02,221.09 343.77,219.52 C337.52,217.95 340,208.25 346.21,209.82 Z" id="Shape" fill="#FAFAFA" fill-rule="nonzero"></path>
            <rect id="Rectangle-path" fill="#FAFAFA" fill-rule="nonzero" transform="translate(288.190482, 165.828067) rotate(-165.860000) translate(-288.190482, -165.828067) " x="180.190482" y="134.328067" width="216" height="63"></rect>
            <path d="M252.81,420.9 L320.81,150.84 L398.39,170.39 L330.39,440.45 C324.248482,464.81672 299.516783,479.591269 275.15,473.45 L197.57,453.9 C221.936783,460.041269 246.668482,445.26672 252.81,420.9 Z" id="Shape" fill="#000000" fill-rule="nonzero" opacity="0.05"></path>
            <path d="M199.48,407.46 L267.48,137.4 L189.9,117.85 L121.9,387.91 C115.758731,412.276783 130.53328,437.008482 154.9,443.15 L232.48,462.7 C208.11328,456.558482 193.338731,431.826783 199.48,407.46 Z" id="Shape" fill="#FFFFFF" fill-rule="nonzero" opacity="0.1"></path>
            <path d="M158.47,91.36 C163.33,72.08 225.88,71.22 298.17,89.44 C370.46,107.66 425.17,138.05 420.28,157.33 C417.28,169.09 392.89,173.99 357.88,171.9 C360.812878,182.426758 355.75447,193.538305 345.889476,198.238974 C336.024483,202.939644 324.208205,199.868884 317.88,190.96 C310.13,208.3 296.75,219.02 284.88,216.02 C271.88,212.74 265.04,194.14 268.27,172.85 C261.96,178.17 254.71,180.57 247.84,178.85 C239.46,176.74 233.5,168.95 231.02,158.56 C225.9,161.56 220.4,162.66 215.13,161.33 C208.37,159.63 203.18,154.24 200.13,146.76 C195.13,161.98 182.8,171.76 171.46,168.89 C159.46,165.89 153.09,149.72 157.34,132.89 C159.6,123.89 164.34,116.57 170.18,112.09 C161.27,104.53 156.95,97.4 158.47,91.36 Z" id="Shape" fill="#000000" fill-rule="nonzero" opacity="0.03"></path>
            <path d="M160.67,82.63 C165.53,63.35 228.08,62.49 300.37,80.71 C372.66,98.93 427.37,129.32 422.48,148.6 C419.48,160.36 395.09,165.26 360.08,163.17 C363.012878,173.696758 357.95447,184.808305 348.089476,189.508974 C338.224483,194.209644 326.408205,191.138884 320.08,182.23 C312.33,199.57 298.95,210.29 287.08,207.29 C274.08,204.01 267.24,185.41 270.47,164.12 C264.16,169.44 256.91,171.84 250.04,170.12 C241.66,168.01 235.7,160.22 233.22,149.83 C228.1,152.83 222.6,153.93 217.33,152.6 C210.57,150.9 205.38,145.51 202.33,138.03 C197.33,153.25 185,163.03 173.66,160.16 C161.66,157.16 155.29,140.99 159.54,124.16 C161.8,115.16 166.54,107.84 172.38,103.36 C163.47,95.8 159.14,88.67 160.67,82.63 Z" id="Shape" fill="#FAFAFA" fill-rule="nonzero"></path>
            <g id="Group" opacity="0.5" transform="translate(436.000000, 0.000000)" fill="#3AD29F" fill-rule="nonzero">
                <rect id="Rectangle-path" x="7" y="0" width="3" height="17"></rect>
                <rect id="Rectangle-path" transform="translate(8.500000, 8.500000) rotate(90.000000) translate(-8.500000, -8.500000) " x="7" y="0" width="3" height="17"></rect>
            </g>
            <g id="Group" opacity="0.5" transform="translate(0.000000, 218.000000)" fill="#3AD29F" fill-rule="nonzero">
                <rect id="Rectangle-path" x="7" y="0" width="3" height="17"></rect>
                <rect id="Rectangle-path" transform="translate(8.500000, 8.500000) rotate(90.000000) translate(-8.500000, -8.500000) " x="7" y="2.84217094e-14" width="3" height="17"></rect>
            </g>
            <g id="Group" opacity="0.5" transform="translate(561.000000, 722.000000)" fill="#3AD29F" fill-rule="nonzero">
                <rect id="Rectangle-path" x="7" y="0" width="3" height="17"></rect>
                <rect id="Rectangle-path" transform="translate(8.500000, 8.500000) rotate(90.000000) translate(-8.500000, -8.500000) " x="7" y="0" width="3" height="17"></rect>
            </g>
            <g id="Group" opacity="0.5" transform="translate(10.000000, 497.000000)" fill="#3AD29F" fill-rule="nonzero">
                <rect id="Rectangle-path" x="7" y="0" width="3" height="17"></rect>
                <rect id="Rectangle-path" transform="translate(8.500000, 8.500000) rotate(90.000000) translate(-8.500000, -8.500000) " x="7" y="0" width="3" height="17"></rect>
            </g>
            <g id="Group" opacity="0.5" transform="translate(196.000000, 522.000000)" fill="#3AD29F" fill-rule="nonzero">
                <rect id="Rectangle-path" x="7" y="0" width="3" height="17"></rect>
                <rect id="Rectangle-path" transform="translate(8.500000, 8.500000) rotate(90.000000) translate(-8.500000, -8.500000) " x="7" y="0" width="3" height="17"></rect>
            </g>
            <path d="M147.09,670.89 C145.396042,670.129135 144.537355,668.222849 145.09,666.45 C145.132757,666.31697 145.15961,666.179345 145.17,666.04 C145.222417,665.22727 144.734319,664.47677 143.970154,664.195114 C143.20599,663.913458 142.347578,664.167662 141.86,664.82 C141.779553,664.931809 141.712432,665.052627 141.66,665.18 C140.899135,666.873958 138.992849,667.732645 137.22,667.18 C137.08697,667.137243 136.949345,667.11039 136.81,667.1 C135.99727,667.047583 135.24677,667.535681 134.965114,668.299846 C134.683458,669.06401 134.937662,669.922422 135.59,670.41 C135.701809,670.490447 135.822627,670.557568 135.95,670.61 C137.643958,671.370865 138.502645,673.277151 137.95,675.05 C137.907243,675.18303 137.88039,675.320655 137.87,675.46 C137.817583,676.27273 138.305681,677.02323 139.069846,677.304886 C139.83401,677.586542 140.692422,677.332338 141.18,676.68 C141.260447,676.568191 141.327568,676.447373 141.38,676.32 C142.140865,674.626042 144.047151,673.767355 145.82,674.32 C145.95303,674.362757 146.090655,674.38961 146.23,674.4 C147.04273,674.452417 147.79323,673.964319 148.074886,673.200154 C148.356542,672.43599 148.102338,671.577578 147.45,671.09 C147.338191,671.009553 147.217373,670.942432 147.09,670.89 Z" id="Shape" fill="#F55F44" fill-rule="nonzero" opacity="0.5"></path>
            <path d="M395.09,636.89 C393.396042,636.129135 392.537355,634.222849 393.09,632.45 C393.132757,632.31697 393.15961,632.179345 393.17,632.04 C393.222417,631.22727 392.734319,630.47677 391.970154,630.195114 C391.20599,629.913458 390.347578,630.167662 389.86,630.82 C389.779553,630.931809 389.712432,631.052627 389.66,631.18 C388.899135,632.873958 386.992849,633.732645 385.22,633.18 C385.08697,633.137243 384.949345,633.11039 384.81,633.1 C383.99727,633.047583 383.24677,633.535681 382.965114,634.299846 C382.683458,635.06401 382.937662,635.922422 383.59,636.41 C383.701809,636.490447 383.822627,636.557568 383.95,636.61 C385.643958,637.370865 386.502645,639.277151 385.95,641.05 C385.907243,641.18303 385.88039,641.320655 385.87,641.46 C385.817583,642.27273 386.305681,643.02323 387.069846,643.304886 C387.83401,643.586542 388.692422,643.332338 389.18,642.68 C389.260447,642.568191 389.327568,642.447373 389.38,642.32 C390.140865,640.626042 392.047151,639.767355 393.82,640.32 C393.95303,640.362757 394.090655,640.38961 394.23,640.4 C395.04273,640.452417 395.79323,639.964319 396.074886,639.200154 C396.356542,638.43599 396.102338,637.577578 395.45,637.09 C395.338191,637.009553 395.217373,636.942432 395.09,636.89 Z" id="Shape" fill="#3AD29F" fill-rule="nonzero" opacity="0.5"></path>
            <path d="M491.09,168.89 C489.396042,168.129135 488.537355,166.222849 489.09,164.45 C489.132757,164.31697 489.15961,164.179345 489.17,164.04 C489.222417,163.22727 488.734319,162.47677 487.970154,162.195114 C487.20599,161.913458 486.347578,162.167662 485.86,162.82 C485.779553,162.931809 485.712432,163.052627 485.66,163.18 C484.899135,164.873958 482.992849,165.732645 481.22,165.18 C481.08697,165.137243 480.949345,165.11039 480.81,165.1 C479.99727,165.047583 479.24677,165.535681 478.965114,166.299846 C478.683458,167.06401 478.937662,167.922422 479.59,168.41 C479.701809,168.490447 479.822627,168.557568 479.95,168.61 C481.643958,169.370865 482.502645,171.277151 481.95,173.05 C481.907243,173.18303 481.88039,173.320655 481.87,173.46 C481.817583,174.27273 482.305681,175.02323 483.069846,175.304886 C483.83401,175.586542 484.692422,175.332338 485.18,174.68 C485.260447,174.568191 485.327568,174.447373 485.38,174.32 C486.140865,172.626042 488.047151,171.767355 489.82,172.32 C489.95303,172.362757 490.090655,172.38961 490.23,172.4 C491.04273,172.452417 491.79323,171.964319 492.074886,171.200154 C492.356542,170.43599 492.102338,169.577578 491.45,169.09 C491.338191,169.009553 491.217373,168.942432 491.09,168.89 Z" id="Shape" fill="#F55F44" fill-rule="nonzero" opacity="0.5"></path>
            <path d="M748.09,174.89 C746.396042,174.129135 745.537355,172.222849 746.09,170.45 C746.132757,170.31697 746.15961,170.179345 746.17,170.04 C746.222417,169.22727 745.734319,168.47677 744.970154,168.195114 C744.20599,167.913458 743.347578,168.167662 742.86,168.82 C742.779553,168.931809 742.712432,169.052627 742.66,169.18 C741.899135,170.873958 739.992849,171.732645 738.22,171.18 C738.08697,171.137243 737.949345,171.11039 737.81,171.1 C736.99727,171.047583 736.24677,171.535681 735.965114,172.299846 C735.683458,173.06401 735.937662,173.922422 736.59,174.41 C736.701809,174.490447 736.822627,174.557568 736.95,174.61 C738.643958,175.370865 739.502645,177.277151 738.95,179.05 C738.907243,179.18303 738.88039,179.320655 738.87,179.46 C738.817583,180.27273 739.305681,181.02323 740.069846,181.304886 C740.83401,181.586542 741.692422,181.332338 742.18,180.68 C742.260447,180.568191 742.327568,180.447373 742.38,180.32 C743.140865,178.626042 745.047151,177.767355 746.82,178.32 C746.95303,178.362757 747.090655,178.38961 747.23,178.4 C748.04273,178.452417 748.79323,177.964319 749.074886,177.200154 C749.356542,176.43599 749.102338,175.577578 748.45,175.09 C748.338191,175.009553 748.217373,174.942432 748.09,174.89 Z" id="Shape" fill="#F55F44" fill-rule="nonzero" opacity="0.5"></path>
            <path d="M378.09,449.89 C376.396042,449.129135 375.537355,447.222849 376.09,445.45 C376.132757,445.31697 376.15961,445.179345 376.17,445.04 C376.222417,444.22727 375.734319,443.47677 374.970154,443.195114 C374.20599,442.913458 373.347578,443.167662 372.86,443.82 C372.779553,443.931809 372.712432,444.052627 372.66,444.18 C371.899135,445.873958 369.992849,446.732645 368.22,446.18 C368.08697,446.137243 367.949345,446.11039 367.81,446.1 C366.99727,446.047583 366.24677,446.535681 365.965114,447.299846 C365.683458,448.06401 365.937662,448.922422 366.59,449.41 C366.701809,449.490447 366.822627,449.557568 366.95,449.61 C368.643958,450.370865 369.502645,452.277151 368.95,454.05 C368.907243,454.18303 368.88039,454.320655 368.87,454.46 C368.817583,455.27273 369.305681,456.02323 370.069846,456.304886 C370.83401,456.586542 371.692422,456.332338 372.18,455.68 C372.260447,455.568191 372.327568,455.447373 372.38,455.32 C373.140865,453.626042 375.047151,452.767355 376.82,453.32 C376.95303,453.362757 377.090655,453.38961 377.23,453.4 C378.04273,453.452417 378.79323,452.964319 379.074886,452.200154 C379.356542,451.43599 379.102338,450.577578 378.45,450.09 C378.338191,450.009553 378.217373,449.942432 378.09,449.89 Z" id="Shape" fill="#F55F44" fill-rule="nonzero" opacity="0.5"></path>
            <path d="M814.09,23.89 C812.396042,23.1291345 811.537355,21.2228487 812.09,19.45 C812.132757,19.3169702 812.15961,19.1793453 812.17,19.04 C812.222417,18.2272697 811.734319,17.4767697 810.970154,17.1951137 C810.20599,16.9134578 809.347578,17.1676616 808.86,17.82 C808.779553,17.9318091 808.712432,18.0526267 808.66,18.18 C807.899135,19.8739578 805.992849,20.7326451 804.22,20.18 C804.08697,20.1372432 803.949345,20.1103895 803.81,20.1 C802.99727,20.0475833 802.24677,20.5356806 801.965114,21.2998455 C801.683458,22.0640104 801.937662,22.9224216 802.59,23.41 C802.701809,23.4904473 802.822627,23.5575682 802.95,23.61 C804.643958,24.3708655 805.502645,26.2771513 804.95,28.05 C804.907243,28.1830298 804.88039,28.3206547 804.87,28.46 C804.817583,29.2727303 805.305681,30.0232303 806.069846,30.3048863 C806.83401,30.5865422 807.692422,30.3323384 808.18,29.68 C808.260447,29.5681909 808.327568,29.4473733 808.38,29.32 C809.140865,27.6260422 811.047151,26.7673549 812.82,27.32 C812.95303,27.3627568 813.090655,27.3896105 813.23,27.4 C814.04273,27.4524167 814.79323,26.9643194 815.074886,26.2001545 C815.356542,25.4359896 815.102338,24.5775784 814.45,24.09 C814.338191,24.0095527 814.217373,23.9424318 814.09,23.89 Z" id="Shape" fill="#F55F44" fill-rule="nonzero" opacity="0.5"></path>
        </g>
    </g>
</svg>