<svg xmlns="http://www.w3.org/2000/svg" xmlns:xlink="http://www.w3.org/1999/xlink" version="1.1" x="0px" y="0px" viewBox="0 0 164 205" enable-background="new 0 0 164 164" xml:space="preserve"><g><path fill-rule="evenodd" clip-rule="evenodd" d="M96.361,133.409C90.893,97.644,130.012,133.867,96.361,133.409L96.361,133.409z    M87.661,150.038C95.067,117.211,51.538,147.993,87.661,150.038L87.661,150.038z M94.179,162.45"/><path fill-rule="evenodd" clip-rule="evenodd" d="M118.587,95.229c-21.729,3.879-21.217-6.796-15.538-12.641   C108.407,77.074,118.369,75.858,118.587,95.229L118.587,95.229z M135.889,107.465c7.986-1.091,14.317-36.77,9.271-42.794   c-2.708-3.232-4.215-6.306-6.965-12.175c-3.385-7.223-4.835-9.183-13.156-17.748c-4.09-8.512-10.667-16.085-13.554-24.59   c-1.151-3.394-2.317-7.032-5.26-9.338c-11.09,9.021-1.152,25.152,3.503,37.635c4.448,11.935-19.063,8.74-27.589,6.548   c-13.365-3.435-26.252-6.323-38.321-9.652c-10.725-2.958-14.377,6.521-3.282,10.312c13.952,4.762,28.325,8.203,41.569,14.626   c-12.318-0.926-40.498-4.247-51.238-4.817c-19.851-1.053-14.735,9.864-1.064,12.322c9.305,1.674,36.475,5.194,51.111,9.383   c-15.812,2.593-37.604,2.692-48.356,2.673c-10.492-0.019-11.044,8.209-0.331,9.526c15.9,1.952,30.899,2.663,48.273,3.289   c-8.645,4.968-22.238,7.661-32.183,9.609c-14.313,2.803-7.666,10.972,1.376,10.438c13.96-0.825,24.411-3.435,38.045-6.407   C110.162,110.837,119.683,109.678,135.889,107.465z"/></g><text x="0" y="179" fill="#000000" font-size="5px" font-weight="bold" font-family="'Helvetica Neue', Helvetica, Arial-Unicode, Arial, Sans-serif">Created by Aleksandr Vector</text><text x="0" y="184" fill="#000000" font-size="5px" font-weight="bold" font-family="'Helvetica Neue', Helvetica, Arial-Unicode, Arial, Sans-serif">from the Noun Project</text></svg>